<?xml version="1.0" encoding="UTF-8"?>
<svg version="1.1" viewBox="0 0 2048 1384" width="1280" height="1280" xmlns="http://www.w3.org/2000/svg">
<path transform="translate(1403,140)" d="m0 0h49l31 3 28 5 25 7 22 8 8 4 6-2 8-3h11l14 4 11 6 10 8 12 12 10 15 6 12 4 12 1 5v20l-2 7 1 9 4 20 1 12v18l-2 19-4 21-6 19-8 21-11 23-13 22-13 19-13 17-11 13-12 14-28 28-8 7-15 13-14 11-17 13-23 16-24 15-23 13-27 14-25 12-32 13-28 10-19 6h-2l1 2h56l50-1 8-8 13-9 17-9 15-5 15-3 16-1 21 2 19 5 14 6 16 10 10 9 2 1h79l13 2 12 5 11 8 8 9 8 16 2 10v14l-3 13-7 13-9 10-10 7-12 5-12 2-47 1-7 20-9 16-10 13-13 13-14 10-16 8-14 5-12 3-8 1h-25l-20-4-17-6-16-9-14-11-12-12-9-13-6-10-6-15-1-7h-43l-2 9-6 15-8 14-8 10-9 10-12 10-13 8-15 7-17 5-13 2h-24l-20-4-17-6-13-7-11-8-10-9-9-9-7-10-8-14-6-15-1-5-369 4-2 10-7 17-8 13-8 10-6 7-8 7-11 8-14 8-19 7-14 3-10 1h-16l-15-2-18-5-19-9-13-9-12-11-10-11-8-13-7-14-4-12v-3l-38 1h-59l-12-4-8-5-7-6-7-11-4-13v-14l4-12 6-10 10-9 13-6 5-1h13l-2-11v-34l3-17 5-15 6-11 7-9 9-9 11-7 11-5 19-5 7-1h32v-11l5-32 7-27 8-24 11-25 11-20 11-16 8-10 9-10 15-15 13-10 18-11 16-8 15-6 21-6 22-4 30-2h11v-37l110-1 1 1 2 160 1 91v26l41-1 7-1-6-17-4-17-2-21v-14l3-27 6-25 7-20 9-20 12-23 12-19 10-14-8-20-2-8-1-15 2-14 5-13 6-10 9-10 14-9 11-4 5-1h21l14 4 11 6 5-1 15-12 17-12 27-18 25-15 24-13 26-13 32-14 35-13 25-8 38-10 36-7 30-4z" fill="#4E4B36"/>
<path transform="translate(1403,140)" d="m0 0h49l31 3 28 5 25 7 22 8 8 4 6-2 8-3h11l14 4 11 6 10 8 12 12 10 15 6 12 4 12 1 5v20l-2 7 1 9 4 20 1 12v18l-2 19-4 21-6 19-8 21-11 23-13 22-13 19-13 17-11 13-12 14-28 28-8 7-15 13-14 11-17 13-23 16-24 15-23 13-27 14-25 12-32 13-28 10-22 7-9-8-14-9-3-17-5-13-6-10-9-10-8-7-14-8-13-5-11-2h-110l-87 1h-85l-4-9-5-17-3-17-1-13v-14l3-27 6-25 7-20 9-20 12-23 12-19 10-14-8-20-2-8-1-15 2-14 5-13 6-10 9-10 14-9 11-4 5-1h21l14 4 11 6 5-1 15-12 17-12 27-18 25-15 24-13 26-13 32-14 35-13 25-8 38-10 36-7 30-4z" fill="#F9BC0D"/>
<path transform="translate(841,317)" d="m0 0h16l1 1 2 160 1 91v26l-19 4-13 5-15 9-13 13-8 13-4 10-3 15v12l2 13-12 1h-89l-14-11-14-8-11-5-17-5-13-2h-23l-18 3-15 5-16 8-12 8-12 11-7 7-10 14-97 1-2-11v-34l3-17 5-15 6-11 7-9 9-9 11-7 11-5 19-5 7-1h32v-11l5-32 7-27 8-24 11-25 11-20 11-16 8-10 9-10 15-15 13-10 18-11 16-8 15-6 21-6 22-4 30-2h11v-37z" fill="#F9BC0D"/>
<path transform="translate(1473,647)" d="m0 0 17 1 20 4 20 8 16 10 10 9 2 1h79l13 2 12 5 11 8 8 9 8 16 2 10v14l-3 13-7 13-9 10-10 7-12 5-12 2-47 1-7 20-9 16-10 13-13 13-14 10-16 8-14 5-12 3-8 1h-25l-20-4-17-6-16-9-14-11-12-12-9-13-6-10-6-15-1-7h-43l-2 9-6 15-8 14-8 10-9 10-12 10-13 8-15 7-17 5-13 2h-24l-20-4-17-6-13-7-11-8-10-9-9-9-7-10-8-14-6-15-4-16-1-7v-26l4-20 7-19 10-17 12-14 11-10 15-10 17-8 16-5 12-2h28l20 4 16 6 15 8 12 9 5 5h56l50-1 8-8 13-9 17-9 15-5 15-3z" fill="#11100E"/>
<path transform="translate(997,272)" d="m0 0h21l14 4 11 6 8 6 10 10 8 14 26 52 11 23 23 46 11 23 22 44 11 23 22 44 11 23 2 6-16-3h-110l-87 1h-85l-4-9-5-17-3-17-1-13v-14l3-27 6-25 7-20 9-20 12-23 12-19 10-14-8-20-2-8-1-15 2-14 5-13 6-10 9-10 14-9 11-4z" fill="#F5751B"/>
<path transform="translate(595,658)" d="m0 0h23l17 3 18 6 17 9 12 9 5 4v2l4 2 12 14 9 15 6 14 4 13 3 21v13l-3 21-6 18-8 16-10 14-8 9-8 7-11 8-14 8-19 7-14 3-10 1h-16l-15-2-18-5-19-9-13-9-12-11-10-11-8-13-7-14-4-12v-3l-38 1h-59l-12-4-8-5-7-6-7-11-4-13v-14l4-12 6-10 10-9 13-6 5-1 26-1 84-1 10-14 15-15 14-10 16-8 14-5 14-3z" fill="#11100E"/>
<path transform="translate(1190,651)" d="m0 0h28l20 4 16 6 15 8 12 9 15 15 11 16 8 16 5 16 3 21v13l-2 17-4 14-6 15-8 14-8 10-9 10-12 10-13 8-15 7-17 5-13 2h-24l-20-4-17-6-13-7-11-8-10-9-9-9-7-10-8-14-6-15-4-16-1-7v-26l4-20 7-19 10-17 12-14 11-10 15-10 17-8 16-5z" fill="#11100E"/>
<path transform="translate(1082,592)" d="m0 0h110l14 3 12 5 12 7 12 11 6 7 6 10 5 13 2 10v7l-20-8-16-4-7-1h-28l-16 3-17 6-17 9-12 9-8 7-268 3h-64l-2-5-1-8v-12l3-15 5-12 8-12 13-13 15-9 13-5 15-3 45-1z" fill="#747759"/>
<path transform="translate(956,376)" d="m0 0 3 3 17 34 11 23 22 44 11 23 21 42 11 23 11 22v3l-68 1h-85l-4-9-5-17-3-17-1-13v-14l3-27 6-25 7-20 9-20 12-23 12-19z" fill="#FABD0D"/>
<path transform="translate(729,415)" d="m0 0h29l1 87v53l-162 2h-13l1-15 4-20 7-20 11-21 9-12 9-10 8-8 14-10 14-8 16-7 20-6 23-4z" fill="#fff"/>
<path transform="translate(421,715)" d="m0 0h84l-9 19-5 17-2 13v26l2 16-37 1h-59l-12-4-8-5-7-6-7-11-4-13v-14l4-12 6-10 10-9 13-6 5-1z" fill="#4E4B36"/>
<path transform="translate(1620,680)" d="m0 0h17l13 2 12 5 11 8 8 9 8 16 2 10v14l-3 13-7 13-9 10-10 7-12 5-12 2h-47l2-17v-22l-3-18-6-18-9-17-10-13-5-6-2-2z" fill="#4E4B36"/>
<path transform="translate(1580,162)" d="m0 0h11l14 4 11 6 10 8 12 12 10 15 6 12 4 12 1 5v20l-4 11-7 8-8 4-6 1h-8l-12-3-15-8-13-11-9-10-10-15-6-14-4-15v-17l3-10 6-8 8-5z" fill="#F5751B"/>
<path transform="translate(1534,973)" d="m0 0h11l10 2 10 4 10 7 1-7 6-5 9-1 6 4 3 4 1 5v92l-3 9-6 4h-9l-5-3-3-5v-4l-11 8-8 4-7 2h-18l-10-3-11-6-11-11-6-10-4-11-2-12v-14l3-15 8-16 10-11 11-7 9-3zm4 24-8 3-6 4-7 8-4 10-1 6v11l3 11 6 10 9 7 12 3 13-2 8-5 8-9 4-11 1-10-2-13-6-12-8-7-6-3-5-1z" fill="#141310"/>
<path transform="translate(1124,973)" d="m0 0h11l12 3 10 5 10 8 8 10 6 12 3 12v11l-6 7-3 1h-75l3 9 6 9 9 6 6 2 10 1 13-2 15-7h7l6 5 1 2v8l-3 5-10 7-14 5-5 1h-22l-15-4-12-7-11-11-7-13-3-12v-24l3-12 8-15 11-11 12-7zm-1 24-10 3-6 4-5 7-2 6v4h56l-1-9-6-8-8-5-7-2z" fill="#13120F"/>
<path transform="translate(911,973)" d="m0 0h11l12 3 13 7 9 8 7 10 6 13 2 11v7l-3 6-6 4h-76l5 12 7 8 9 5 14 2 13-2 15-7 9 1 5 6v7l-3 5-7 6-11 5-12 3h-21l-15-4-11-6-9-8-7-10-5-13-2-14 1-17 3-11 6-12 8-10 13-9 10-4zm-2 24-11 4-5 4-5 8-1 8h56l-1-8-4-6-8-7-9-3z" fill="#13120F"/>
<path transform="translate(339,938)" d="m0 0 14 1 15 4 12 6 3 6-1 9-5 6-2 1h-9l-15-5h-22l-10 3-9 5-7 6-7 11-4 14v22l3 12 7 12 9 8 8 4 11 3h21l15-5h9l6 5 2 4v8l-4 6-11 5-16 4h-24l-17-4-16-8-9-7-8-8-8-13-5-13-2-10-1-17 2-16 5-15 6-11 9-11 13-10 14-7 17-4z" fill="#13120F"/>
<path transform="translate(1338,938)" d="m0 0 14 1 15 4 10 5 4 5v10l-4 6-3 2h-9l-11-4-5-1h-21l-13 4-9 6-7 7-6 12-3 13v15l3 14 6 12 5 6 11 7 13 4h21l13-4 2-1h9l5 3 4 8-1 8-7 6-14 5-10 2h-23l-14-3-13-5-11-7-10-9-9-13-6-14-3-16v-20l3-15 5-12 6-10 9-10 7-6 14-8 11-4 10-2z" fill="#13120F"/>
<path transform="translate(450,973)" d="m0 0h12l14 3 16 8 11 11 8 14 4 15v18l-4 16-6 11-9 10-11 8-10 4-9 2h-20l-11-3-14-7-9-8-7-10-4-8-3-10-1-8v-11l2-12 5-13 9-12 9-8 14-7zm1 24-9 3-6 4-5 5-5 8-2 5-1 7v9l3 12 6 9 7 6 9 4 9 1 11-2 9-6 8-9 4-13v-14l-3-10-6-9-9-7-9-3z" fill="#13120F"/>
<path transform="translate(1471,719)" d="m0 0h8l14 3 6 3 8 6 7 7 5 10 3 10v18l-5 13-7 9-8 7-10 5-7 2h-19l-10-3-11-7-9-10-6-12-1-8v-16l5-13 7-9 9-8 12-5z" fill="#B2B299"/>
<path transform="translate(1199,722)" d="m0 0h10l12 3 12 6 9 9 7 13 2 10v11l-3 12-5 10-7 8-11 7-12 4h-18l-14-5-9-7-7-8-5-10-2-7v-18l4-13 6-8 5-6 7-5 14-5z" fill="#B2B299"/>
<path transform="translate(596,729)" d="m0 0h18l14 5 8 6 7 7 6 12 2 6 1 13-3 14-5 10-9 10-10 6-9 3-6 1h-10l-12-3-10-5-10-9-5-9-4-11-1-12 2-11 5-12 9-10 8-6z" fill="#B2B299"/>
<path transform="translate(593,973)" d="m0 0h13l11 3 9 6 6 8 3 7 3 19v64l-3 7-6 4h-9l-7-6-1-2-1-66-3-11-5-5-7-3h-13l-9 4-6 5-4 9-1 64-3 7-6 4h-9l-7-6-1-3v-98l4-6 7-3 7 1 6 5 3 9 7-7 9-6z" fill="#13120F"/>
<path transform="translate(1679,931)" d="m0 0h15l9 3 5 6v8l-3 5-5 3-10-1h-10l-5 3-3 6-1 13h20l7 2 4 5 1 8-4 7-4 2h-24v80l-3 6-3 3-3 1h-8l-5-3-4-6v-81h-16l-6-4-2-4v-7l4-6 3-2 5-1h12v-16l4-11 6-8 6-5 12-5z" fill="#13120F"/>
<path transform="translate(1342,683)" d="m0 0h49l-6 7-10 14-8 16-6 17-3 20v18l3 19 1 3h-43l2-11 1-11v-13l-3-21-6-18-8-16-12-16-6-7z" fill="#4E4B36"/>
<path transform="translate(710,973)" d="m0 0h14l16 3 12 6 5 7v10l-3 5-4 2h-7l-9-5-9-3h-11l-10 3-6 4-4 2-2 4-5 12-1 11 2 13 4 8 6 7 12 6 11 1 12-2 8-5 8-1 6 3 3 4 1 7-3 6-5 4-8 4-16 4h-22l-11-3-10-5-12-11-6-10-5-13-2-16 1-14 3-12 5-10 7-9 9-8 12-6z" fill="#131210"/>
<path transform="translate(1739,951)" d="m0 0h10l5 3 3 6v17h15l7 2 5 6v9l-5 6-2 1h-20l1 62 3 4 7 1 3-1h8l4 5 1 6-3 7-7 4-5 2h-16l-11-4-5-4-5-9-1-5v-68h-14l-6-4-2-4v-8l5-6 7-2h10v-17l3-5z" fill="#13120F"/>
<path transform="translate(1012,951)" d="m0 0h10l6 5 2 5 1 16h14l7 2 5 6v9l-5 6-2 1h-20l1 63 3 3 7 1 3-1h7l5 5v9l-5 6-10 4h-15l-9-3-8-6-4-8-1-4v-69h-15l-6-5-1-2v-9l5-6 7-2h10v-18l4-6z" fill="#13120F"/>
<path transform="translate(833,973)" d="m0 0h9l6 3 5 6v8l-3 6-5 3h-8l-6-2h-9l-8 4-6 8-3 8-1 9-1 57-3 5-5 3h-9l-6-4-3-9v-90l3-8 5-4 7-1 7 3 4 5 1 7 8-9 11-6z" fill="#151410"/>
<path transform="translate(1457,973)" d="m0 0h9l8 4 3 3 1 9-2 5-4 4-3 1h-7l-6-2h-9l-8 4-6 7-3 8-1 6-1 60-3 5-5 4h-9l-6-4-3-6v-95l3-6 5-4 7-1 7 3 4 6 1 6 7-8 7-5 8-3z" fill="#141310"/>
<path transform="translate(1202,1165)" d="m0 0 10 2 8 5 2 2 2-7 4-1 3 2v57l-3 8-4 5-9 5-12 2-11-2-6-3-3-5 1-2 9 1 8 2 10-1 7-4 3-5 2-12h-2l-2 4-8 5-4 1h-9l-10-4-7-7-4-9-1-5v-9l3-10 6-8 8-5zm-4 9-7 4-4 5-2 5v13l4 8 7 6 4 1h8l8-4 5-6 2-6v-11l-5-10-8-5z" fill="#53503B"/>
<path transform="translate(1520,1166)" d="m0 0h9l7 3 5 6v2l8-7 9-4h9l8 4 5 8 1 4v39l-2 2-5-1-2-3-1-36-3-6-4-2h-8l-8 4-3 5-1 35-3 4-5-1-1-1-1-36-3-7-5-3h-7l-8 4-3 5-1 35-3 4-5-1-1-1v-52l2-2 6 1 2 6 7-6z" fill="#56533E"/>
<path transform="translate(927,1146)" d="m0 0h11l10 3 6 4 3 4-2 5h-5l-5-4-10-3-10 1-6 3-2 3v8l4 5 10 4 15 5 6 4 4 5 2 6v8l-4 8-7 6-9 3h-12l-10-3-9-6-2-2v-5l2-2 5 1 9 6 3 1h15l6-3 3-5v-6l-2-5-5-2-22-8-6-4-4-5-2-5v-8l3-7 5-5 7-4z" fill="#54513C"/>
<path transform="translate(1810,1166)" d="m0 0 6 1 13 38 1 1 11-28 2-2 5 1 5 10 7 18 1 1 13-38 2-2 5 1 1 1-1 9-15 43-3 3-5-1-6-13-7-18-5 12-6 17-3 3-5-1-5-12-13-37v-5z" fill="#53513B"/>
<path transform="translate(834,1165)" d="m0 0 11 2 8 6 2-5 4-2 4 3v51l-3 3-5-1-2-6-6 5-7 3h-10l-10-5-7-8-3-8-1-11 3-12 6-8 7-5zm-4 9-6 4-4 5-2 5v13l4 8 7 6 3 1h8l8-4 5-7 2-8-1-10-5-8-5-4-2-1z" fill="#54523C"/>
<path transform="translate(1267,1165)" d="m0 0 11 2 6 4 7 8 3 10-1 6-1 1h-42l4 11 5 5 7 3h9l8-4 2-2h5l2 4-4 5-9 5-4 1h-10l-9-3-8-6-4-6-2-7v-15l4-9 7-8 8-4zm-5 9-6 4-4 5-1 6h33l1-2-3-7-6-5-3-1z" fill="#524F3A"/>
<path transform="translate(465,1165)" d="m0 0 11 2 6 4 6 7 3 7 1 8-2 3h-42l3 10 4 5 5 3 4 1h9l8-4 2-2h5l1 1v5l-8 6-8 3h-10l-9-3-8-6-5-8-2-13 2-11 5-8 5-5 8-4zm-5 9-7 4-4 7v4h33l-1-7-4-5-6-3z" fill="#524F3A"/>
<path transform="translate(565,1165)" d="m0 0 10 2 8 5 5 6 3 7v10l-2 1h-41l3 10 5 6 8 3h8l8-3 3-3h5l1 5-8 7-8 3h-10l-10-3-8-7-5-10-1-10 2-11 6-10 9-6zm-5 9-7 4-4 7-1 4h34l-1-7-5-5-5-3z" fill="#514F39"/>
<path transform="translate(178,1146)" d="m0 0h9l12 3 6 3 1 6-2 2-6-1-8-3h-14l-9 4-6 5-5 10-1 4v12l4 11 7 8 10 4h14l10-4 5 1 1 1v5l-9 5-8 2h-12l-10-3-10-6-6-7-4-8-2-7v-16l4-11 6-8 8-7 10-4z" fill="#53513B"/>
<path transform="translate(698,1165)" d="m0 0 11 2 6 3 6 5 5 10 1 4v12l-4 10-7 8-8 4-4 1h-10l-9-3-9-8-4-8-1-4v-12l3-9 6-8 6-4zm-5 9-8 5-4 6-1 3v14l5 8 5 4 5 2h8l8-4 5-6 2-5v-13l-4-8-5-4-4-2z" fill="#54523C"/>
<path transform="translate(1075,1165)" d="m0 0 11 2 8 5 7 8 3 10v10l-4 11-7 8-8 4-4 1h-10l-9-3-9-8-4-7-1-5v-13l4-10 6-7 7-4zm-5 9-7 4-4 5-2 4-1 10 3 10 8 7 5 2h8l8-4 6-8 1-4v-11l-5-10-8-5z" fill="#54513C"/>
<path transform="translate(1621,1165)" d="m0 0 11 2 8 5 6 7 4 11v9l-3 10-6 8-8 5-6 2h-10l-9-3-9-8-4-8-1-3v-14l4-10 6-7 7-4zm-5 9-7 4-4 5-2 4-1 10 3 10 8 7 5 2h8l8-4 6-8 1-4v-11l-5-10-8-5z" fill="#53513B"/>
<path transform="translate(1771,1165)" d="m0 0 11 2 9 6 6 8 2 6 1 9-2 10-6 10-9 6-6 2h-11l-10-4-6-5-6-12-1-10 3-12 6-8 9-6zm-6 9-6 4-5 6-2 6v9l4 10 8 6 4 1h7l7-3 5-5 3-5 1-4v-9l-4-9-7-6-2-1z" fill="#53503A"/>
<path transform="translate(1457,1165)" d="m0 0 11 2 9 6 4 5 4 10v14l-4 10-8 8-11 4h-10l-10-4-7-6-5-10-1-13 3-10 4-6 7-6 7-3zm-6 9-8 5-5 10v11l3 7 5 6 7 3h8l7-3 5-5 3-6 1-9-2-9-7-8-4-2z" fill="#53513B"/>
<path transform="translate(242,1165)" d="m0 0 11 2 9 6 5 6 3 9v14l-4 10-8 8-11 4h-10l-10-4-6-5-5-8-2-9 1-12 5-10 8-7 7-3zm-6 9-8 5-4 7-1 4v10l4 9 6 5 5 2h8l7-3 5-5 3-5 1-10-2-9-7-8-4-2z" fill="#53513B"/>
<path transform="translate(1144,1165)" d="m0 0 10 2 6 5 3 7 1 7v33l-3 4-5-1-1-1-1-37-3-7-3-2h-12l-7 4-3 6-1 36-2 2-5-1-2-3v-48l1-3 6-1 2 2 1 5 7-6 5-2z" fill="#57553F"/>
<path transform="translate(310,1165)" d="m0 0 10 2 7 6 3 8v40l-2 2-5-1-1-1-1-33-2-9-5-4h-12l-7 5-2 3-1 36-3 4-5-1-1-1v-52l2-2 6 1 2 6 7-6z" fill="#54513C"/>
<path transform="translate(1378,1147)" d="m0 0h53l3 2-1 5-1 1h-23v66l-3 2-5-1-1-2v-65h-23l-2-2 1-5z" fill="#504D38"/>
<path transform="translate(652,1143)" d="m0 0h9l5 3-1 5-5 1h-7l-3 3-1 13h14l1 1v5l-2 2h-13v44l-3 3-5-1-1-2v-44h-9l-2-2 1-5 1-1h9v-13l4-8z" fill="#53513B"/>
<path transform="translate(370,1165)" d="m0 0 13 2 6 4 1 1v5l-5 2-6-4h-14l-8 5-4 7-1 10 3 10 2 4 4 2 6 2h9l8-4h5l1 1v5l-5 4-9 3h-11l-10-4-7-6-4-8-1-4v-14l4-10 6-7 10-5z" fill="#53513B"/>
<path transform="translate(510,1153)" d="m0 0h6l2 4v10h11l2 2v5l-1 1-12 1 1 37 1 1 8 1 1 5-4 3h-8l-5-3-3-5v-40h-9l-2-2 1-5 1-1h9v-12z" fill="#56533E"/>
<path transform="translate(977,1153)" d="m0 0h6l1 2v12h12l2 2-1 5-1 1h-12l1 36 1 3 9 1 1 5-5 3h-7l-5-3-3-4-1-40-10-2v-5l2-2h9v-13z" fill="#514E39"/>
<path transform="translate(1689,1165)" d="m0 0 6 2 1 5-2 2h-10l-7 4-5 10-1 33-3 2-4-1-2-3v-49l3-3 5 1 1 1 1 7 7-8z" fill="#58553F"/>
<path transform="translate(1333,1165)" d="m0 0 6 2 1 5-2 2h-10l-6 3-5 7-1 3-1 33-3 3-5-1-1-2v-50l3-3 5 1 2 8 7-8z" fill="#53513B"/>
<path transform="translate(428,1165)" d="m0 0 7 2 1 4-2 3h-11l-6 4-5 8-1 32-3 5-5-1-1-1v-52l2-2 6 1 1 8 1-1 4-5 7-4z" fill="#57543E"/>
<path transform="translate(1037,1165)" d="m0 0 7 3-1 5-1 1h-11l-6 4-4 6-1 3-1 33-3 3-5-1-1-2v-50l2-3h5l2 3 1 6 7-8z" fill="#55533D"/>
<path transform="translate(1732,1165)" d="m0 0 7 2v6l-1 1h-11l-5 3-5 6-2 9-1 29-2 2-5-1-1-1v-52l2-2 5 1 1 1v8h2l2-5 9-6z" fill="#514E39"/>
<path transform="translate(766,1165)" d="m0 0 6 2 1 1v5l-1 1h-11l-7 4-4 7-1 4-1 32-2 2-5-1-1-1v-52l2-2 5 1 1 1 1 7 6-7 6-3z" fill="#514E39"/>
<path transform="translate(1894,1211)" d="m0 0h6l2 2v8l-2 2-7-1-1-2v-7z" fill="#524F39"/>
</svg>
